<?xml version="1.0" encoding="utf-8"?>
<!-- Generator: Adobe Illustrator 23.0.1, SVG Export Plug-In . SVG Version: 6.00 Build 0)  -->
<svg version="1.1" id="Layer_1" xmlns="http://www.w3.org/2000/svg" xmlns:xlink="http://www.w3.org/1999/xlink" x="0px" y="0px"
	 viewBox="0 0 200 200" style="enable-background:new 0 0 200 200;" xml:space="preserve">
<style type="text/css">
	.st0{fill:#4D91C6;}
	.st1{fill:#D1E7F2;}
</style>
<title>Asset 9</title>
<g>
	<g id="Layer_1-2">
		<path class="st0" d="M175,200H25c-13.8,0-25-11.2-25-25V25C0,11.2,11.2,0,25,0h150c13.8,0,25,11.2,25,25v150
			C200,188.8,188.8,200,175,200z M25,16.7c-4.6,0-8.3,3.7-8.3,8.3v150c0,4.6,3.7,8.3,8.3,8.3h150c4.6,0,8.3-3.7,8.3-8.3V25
			c0-4.6-3.7-8.3-8.3-8.3H25z"/>
	</g>
</g>
<rect x="45.5" y="48.8" class="st0" width="109" height="33.1"/>
<rect x="45.5" y="100.2" class="st0" width="44.5" height="48"/>
<rect x="110" y="100.2" class="st1" width="44.5" height="48"/>
</svg>
