<?xml version="1.0" encoding="utf-8"?>
<!-- Generator: Adobe Illustrator 23.0.1, SVG Export Plug-In . SVG Version: 6.00 Build 0)  -->
<svg version="1.1" id="Layer_1" xmlns="http://www.w3.org/2000/svg" xmlns:xlink="http://www.w3.org/1999/xlink" x="0px" y="0px"
	 viewBox="0 0 200 200" style="enable-background:new 0 0 200 200;" xml:space="preserve">
<style type="text/css">
	.st0{fill:#4D91C6;}
</style>
<title>Asset 75</title>
<path id="XMLID_1732_" class="st0" d="M199.1,54.2l-23.1,72.9c-1.7,5.2-6.3,8.7-11.7,8.7H74.9c-5.2,0-10.2-3.2-11.9-8L28.8,36.2H9.1
	c-4.8,0-8.7-3.9-8.7-8.7c0-4.8,3.9-8.7,8.7-8.7h25.7c3.7,0,6.9,2.4,8.2,5.8l35.3,93.7h82.2L179,60H77.1c-4.8,0-8.7-3.9-8.7-8.7
	c0-4.8,3.9-8.7,8.7-8.7h113.8c2.8,0,5.4,1.5,6.9,3.7C199.5,48.6,199.9,51.6,199.1,54.2z M79.2,147.2c-3.7,0-7.4,1.5-10,4.1
	c-2.6,2.6-4.1,6.3-4.1,10c0,3.7,1.5,7.4,4.1,9.9c2.6,2.6,6.3,4.1,10,4.1s7.4-1.5,10-4.1c2.6-2.6,4.1-6.3,4.1-9.9
	c0-3.7-1.5-7.4-4.1-10S82.9,147.2,79.2,147.2z M156.9,147.2c-3.7,0-7.4,1.5-9.9,4.1c-2.6,2.6-4.1,6.3-4.1,10c0,3.7,1.5,7.4,4.1,9.9
	c2.6,2.6,6.3,4.1,9.9,4.1c3.7,0,7.4-1.5,10-4.1c2.6-2.6,4.1-6.3,4.1-9.9c0-3.7-1.5-7.4-4.1-10C164.3,148.7,160.6,147.2,156.9,147.2z
	"/>
</svg>
