<?xml version="1.0" encoding="utf-8"?>
<!-- Generator: Adobe Illustrator 23.0.1, SVG Export Plug-In . SVG Version: 6.00 Build 0)  -->
<svg version="1.1" id="Layer_1" xmlns="http://www.w3.org/2000/svg" xmlns:xlink="http://www.w3.org/1999/xlink" x="0px" y="0px"
	 viewBox="0 0 200 200" style="enable-background:new 0 0 200 200;" xml:space="preserve">
<style type="text/css">
	.st0{fill:#4D91C6;}
</style>
<title>Asset 74</title>
<g>
	<g id="Layer_1-2">
		<path class="st0" d="M175,0H25C11.2,0,0,11.2,0,25v166.7c0,3.3,1.9,6.2,4.8,7.6c1.1,0.5,2.3,0.7,3.5,0.8c2,0,3.9-0.7,5.4-2l49-42
			c4.5-3.9,10.3-6,16.3-6h96c13.8,0,25-11.2,25-25V25C200,11.2,188.8,0,175,0z M183.3,125c0,4.6-3.7,8.3-8.3,8.3H79
			c-9.9,0-19.6,3.6-27.1,10l-35.2,30.2V25c0-4.6,3.7-8.3,8.3-8.3h150c4.6,0,8.3,3.7,8.3,8.3V125z"/>
		<path class="st0" d="M141.7,49H58.3c-4.6-0.3-8.6,3.2-8.8,7.8s3.2,8.6,7.8,8.8c0.3,0,0.7,0,1,0h83.3c4.6,0.3,8.6-3.2,8.8-7.8
			c0.3-4.6-3.2-8.6-7.8-8.8C142.3,49,142,49,141.7,49z"/>
		<path class="st0" d="M141.7,82.4H58.3c-4.6-0.3-8.6,3.2-8.8,7.8c-0.3,4.6,3.2,8.6,7.8,8.8c0.3,0,0.7,0,1,0h83.3
			c4.6,0.3,8.6-3.2,8.8-7.8c0.3-4.6-3.2-8.6-7.8-8.8C142.3,82.4,142,82.4,141.7,82.4z"/>
	</g>
</g>
</svg>
