<?xml version="1.0" encoding="utf-8"?>
<!-- Generator: Adobe Illustrator 23.0.1, SVG Export Plug-In . SVG Version: 6.00 Build 0)  -->
<svg version="1.1" id="Capa_1" xmlns="http://www.w3.org/2000/svg" xmlns:xlink="http://www.w3.org/1999/xlink" x="0px" y="0px"
	 viewBox="0 0 512 512" style="enable-background:new 0 0 512 512;" xml:space="preserve">
<style type="text/css">
	.st0{fill:#4D91C6;}
</style>
<g>
	<g>
		<path class="st0" d="M509,157c-2.8-3.8-7.3-6-12-6h-92.1c-7.3-50.8-51.1-90-103.9-90s-96.6,39.2-103.9,90H119L99.4,12.9
			C98.4,5.5,92,0,84.6,0H15C6.7,0,0,6.7,0,15s6.7,15,15,15h56.5c0,0.2,42.1,297.6,42.1,297.6c2.6,17.2,11,33,23.7,44.6
			c-10,8.3-16.4,20.8-16.4,34.7c0,20.7,14.1,38.2,33.2,43.4c-2,5.1-3.2,10.7-3.2,16.6c0,24.8,20.2,45,45,45s45-20.2,45-45
			c0-5.3-0.9-10.3-2.6-15h125.2c-1.7,4.7-2.6,9.8-2.6,15c0,24.8,20.2,45,45,45s45-20.2,45-45s-20.2-45-45-45H166
			c-8.3,0-15-6.7-15-15s6.7-15,15-15h224.7c33.4,0,63-22.4,72-54.4l48.7-167.4C512.7,165.7,511.8,160.8,509,157z M406,452
			c8.3,0,15,6.7,15,15s-6.7,15-15,15s-15-6.7-15-15S397.7,452,406,452z M196,452c8.3,0,15,6.7,15,15s-6.7,15-15,15s-15-6.7-15-15
			S187.7,452,196,452z M301,91c41.4,0,75,33.6,75,75s-33.6,75-75,75s-75-33.6-75-75S259.6,91,301,91z M433.9,329.5
			c-5.3,19.2-23.1,32.5-43.2,32.5c-8.5,0-190.3,0-202.8,0c-22.4,0-41.1-16.3-44.6-38.8l-20-142.2h73.8c7.3,50.8,51.1,90,103.9,90
			s96.6-39.2,103.9-90H477C477,181,433.9,329.4,433.9,329.5L433.9,329.5z M275.4,206.6c5.9,5.9,15.4,5.9,21.2,0l45-45
			c5.9-5.9,5.9-15.4,0-21.2c-5.9-5.9-15.4-5.9-21.2,0L286,174.8l-4.4-4.4c-5.9-5.9-15.4-5.9-21.2,0s-5.9,15.4,0,21.2L275.4,206.6z"
			/>
	</g>
</g>
</svg>
