<?xml version="1.0" encoding="utf-8"?>
<!-- Generator: Adobe Illustrator 23.0.1, SVG Export Plug-In . SVG Version: 6.00 Build 0)  -->
<svg version="1.1" id="Layer_1" xmlns="http://www.w3.org/2000/svg" xmlns:xlink="http://www.w3.org/1999/xlink" x="0px" y="0px"
	 viewBox="0 0 200 200" style="enable-background:new 0 0 200 200;" xml:space="preserve">
<style type="text/css">
	.st0{fill:#4D91C6;}
</style>
<title>Asset 22</title>
<g>
	<g id="Layer_1-2">
		<path class="st0" d="M198.3,41.2c-3.7-9.7-13-16.1-23.3-16.2H25C14.4,25,5,31.7,1.5,41.7C0.5,44.3,0,47.2,0,50v100
			c0,10.2,6.2,19.3,15.6,23.2c3,1.2,6.2,1.9,9.4,1.8h150c3.1,0,6.1-0.6,8.9-1.8c5.5-2,10.1-6,13-11.1c2.1-3.7,3.1-7.9,3.1-12.2V50
			C200,47,199.4,44,198.3,41.2z M16.7,50c0-4.6,3.7-8.3,8.3-8.3h150c4.6,0,8.3,3.7,8.3,8.3v1.6l-66.4,50l-13.8,10.7l-3.1,2.3
			l-3.1-2.4l-13.9-10.4L16.7,51.9V50z M16.7,150V72.8l52.4,39.4l-52.3,39.3C16.7,150.9,16.7,150.5,16.7,150z M35.4,158.3L83,122.6
			l12,9.1c3,2.3,7,2.3,10,0l11.9-9l47.3,35.7L35.4,158.3L35.4,158.3z M183.3,150c0,0.6-0.1,1.2-0.3,1.8l-52.3-39.6l52.6-39.8V150z"
			/>
	</g>
</g>
</svg>
