<?xml version="1.0" encoding="utf-8"?>
<!-- Generator: Adobe Illustrator 23.0.1, SVG Export Plug-In . SVG Version: 6.00 Build 0)  -->
<svg version="1.1" id="Layer_1" xmlns="http://www.w3.org/2000/svg" xmlns:xlink="http://www.w3.org/1999/xlink" x="0px" y="0px"
	 viewBox="0 0 200 200" style="enable-background:new 0 0 200 200;" xml:space="preserve">
<style type="text/css">
	.st0{fill:#4D91C6;}
</style>
<title>Home, Website</title>
<path class="st0" d="M175.5,69.4l-66.1-52.9c-5.5-4.5-13.4-4.5-18.9,0L24.5,69.4c-3.9,3.2-6.2,8-6.2,13.1v106.8h163.3V82.5
	C181.7,77.4,179.4,72.6,175.5,69.4z M85.2,174.4v-37.1h29.7v37.1H85.2z M166.8,174.4h-37.1v-52H70.3v52H33.2V82.5
	c0-0.6,0.2-1.1,0.6-1.5L100,28.1L166.1,81c0.4,0.4,0.6,0.9,0.6,1.5L166.8,174.4z"/>
</svg>
