<?xml version="1.0" encoding="utf-8"?>
<!-- Generator: Adobe Illustrator 23.0.1, SVG Export Plug-In . SVG Version: 6.00 Build 0)  -->
<svg version="1.1" id="Layer_1" xmlns="http://www.w3.org/2000/svg" xmlns:xlink="http://www.w3.org/1999/xlink" x="0px" y="0px"
	 viewBox="0 0 200 200" style="enable-background:new 0 0 200 200;" xml:space="preserve">
<style type="text/css">
	.st0{fill:#4D91C6;}
</style>
<title>Asset 40</title>
<g>
	<g id="Layer_1-2">
		<path class="st0" d="M163.3,105.3L104.8,164c-3.4,3.1-8.7,2.8-11.8-0.6c-2.8-3.2-2.9-7.9,0-11.1l44-44.1H8.3
			c-4.6,0.3-8.6-3.2-8.8-7.8c-0.3-4.6,3.2-8.6,7.8-8.8c0.3,0,0.7,0,1,0h129.2L93,47.4c-3.2-3.3-3.1-8.6,0.2-11.8
			c3.2-3.1,8.3-3.1,11.5,0l58.5,58C166.5,96.8,166.5,102.1,163.3,105.3C163.2,105.3,163.2,105.3,163.3,105.3L163.3,105.3z"/>
		<path class="st0" d="M200,175V25c0-13.8-11.2-25-25-25h-58.3c-4.6,0.3-8.1,4.2-7.8,8.8c0.3,4.2,3.6,7.6,7.8,7.8H175
			c4.6,0,8.3,3.7,8.3,8.3v150c0,4.6-3.7,8.3-8.3,8.3h-58.3c-4.6,0.3-8.1,4.2-7.8,8.8c0.3,4.2,3.6,7.6,7.8,7.8H175
			C188.8,200,200,188.8,200,175z"/>
	</g>
</g>
</svg>
