<?xml version="1.0" encoding="utf-8"?>
<!-- Generator: Adobe Illustrator 23.0.1, SVG Export Plug-In . SVG Version: 6.00 Build 0)  -->
<svg version="1.1" id="Layer_1" xmlns="http://www.w3.org/2000/svg" xmlns:xlink="http://www.w3.org/1999/xlink" x="0px" y="0px"
	 viewBox="0 0 200 200" style="enable-background:new 0 0 200 200;" xml:space="preserve">
<style type="text/css">
	.st0{fill:#4D91C6;}
</style>
<title>Asset 76</title>
<g>
	<g id="Layer_1-2">
		<path class="st0" d="M100,192c-2,0-4-0.8-5.4-2.3L18,113.2C-5.9,89-5.6,49.9,18.6,26c22.1-21.8,57-23.8,81.4-4.6
			c26.7-21.2,65.5-16.7,86.6,10c19.4,24.5,17.4,59.7-4.7,81.9l-76.5,76.5C104,191.2,102,192,100,192z M61.6,23.3
			c-25.5-0.1-46.3,20.6-46.4,46.1c0,12.4,4.9,24.3,13.7,33l71.1,71.2l71.1-71.3l0,0c18.1-18.1,18-47.5-0.1-65.5s-47.5-18-65.5,0.1
			c-1.5,1.4-3.4,2.2-5.5,2.3c-2.1,0-4.1-0.7-5.6-2.2c-8.7-8.7-20.5-13.7-32.8-13.7L61.6,23.3L61.6,23.3z"/>
	</g>
</g>
</svg>
