<?xml version="1.0" encoding="utf-8"?>
<!-- Generator: Adobe Illustrator 23.0.1, SVG Export Plug-In . SVG Version: 6.00 Build 0)  -->
<svg version="1.1" id="Layer_1" xmlns:svgjs="http://svgjs.com/svgjs"
	 xmlns="http://www.w3.org/2000/svg" xmlns:xlink="http://www.w3.org/1999/xlink" x="0px" y="0px" viewBox="0 0 512 512"
	 style="enable-background:new 0 0 512 512;" xml:space="preserve">
<style type="text/css">
	.st0{fill:#4D91C6;}
</style>
<g transform="matrix(3.061616997868383e-16,-1,1,3.061616997868383e-16,-0.001953125,310.41992187499994)">
	<g>
		<g>
			<path class="st0" d="M249.7,354.6c81-81,81-212.8,0-293.8c-81-81-212.8-81-293.8,0c-68.7,68.7-79.1,170.9-31.3,250.7
				c0,0,3.4,5.8-1.2,10.4c-26.5,26.5-106,106-106,106c-21.1,21.1-26.1,50.6-7.4,69.3l3.2,3.2c18.7,18.7,48.2,13.7,69.3-7.4
				c0,0,79.3-79.3,105.8-105.8c4.9-4.9,10.6-1.4,10.6-1.4C78.7,433.7,180.9,423.3,249.7,354.6z M-5.8,316.2
				c-59.9-59.9-59.9-157.2,0-217.1c59.9-59.9,157.2-59.9,217.1,0c59.9,59.9,59.9,157.2,0,217.1C151.5,376.1,54.1,376.1-5.8,316.2z"
				/>
			<g>
				<path class="st0" d="M7.5,195.3c-2.8,0-5.6-0.5-8.3-1.7c-10.9-4.6-16-17.2-11.4-28.1C16.7,97,96.1,64.8,164.7,93.8
					c10.9,4.6,16,17.2,11.4,28.1c-4.6,10.9-17.2,16-28.1,11.4c-46.8-19.8-100.9,2.2-120.7,48.9C23.8,190.4,15.8,195.3,7.5,195.3z"/>
			</g>
		</g>
	</g>
</g>
</svg>
