<?xml version="1.0" encoding="utf-8"?>
<!-- Generator: Adobe Illustrator 23.0.1, SVG Export Plug-In . SVG Version: 6.00 Build 0)  -->
<svg version="1.1" id="Layer_1" xmlns="http://www.w3.org/2000/svg" xmlns:xlink="http://www.w3.org/1999/xlink" x="0px" y="0px"
	 viewBox="0 0 200 200" style="enable-background:new 0 0 200 200;" xml:space="preserve">
<style type="text/css">
	.st0{fill:#4D91C6;}
</style>
<title>Asset 38</title>
<rect x="40" y="48.1" class="st0" width="37.5" height="45"/>
<rect x="92.5" y="48.1" class="st0" width="67.5" height="15"/>
<rect x="92.5" y="78" class="st0" width="67.5" height="15"/>
<rect x="40" y="108.1" class="st0" width="120" height="15"/>
<rect x="40" y="136.9" class="st0" width="120" height="15"/>
<path class="st0" d="M167.5,11.8h-135C20.1,11.8,10,21.8,10,34.3v58.1v30.6v41.8c0,12.4,10.1,22.5,22.5,22.5h135
	c12.4,0,22.5-10.1,22.5-22.5v-41.8V92.3V34.3C190,21.8,179.9,11.8,167.5,11.8z M175,122.9v41.8c0,4.1-3.4,7.5-7.5,7.5h-135
	c-4.1,0-7.5-3.4-7.5-7.5v-41.8V92.3V34.3c0-4.1,3.4-7.5,7.5-7.5h135c4.1,0,7.5,3.4,7.5,7.5v58.1V122.9z"/>
</svg>
