<?xml version="1.0" encoding="utf-8"?>
<!-- Generator: Adobe Illustrator 23.0.1, SVG Export Plug-In . SVG Version: 6.00 Build 0)  -->
<svg version="1.1" id="Layer_1" xmlns:svgjs="http://svgjs.com/svgjs"
	 xmlns="http://www.w3.org/2000/svg" xmlns:xlink="http://www.w3.org/1999/xlink" x="0px" y="0px" viewBox="0 0 512 512"
	 style="enable-background:new 0 0 512 512;" xml:space="preserve">
<style type="text/css">
	.st0{fill:#4D91C6;}
</style>
<g>
	<path class="st0" d="M146,492c0,11-9,20-20,20H80c-44.1,0-80-35.9-80-80V80C0,35.9,35.9,0,80,0h245.9c44.1,0,80,35.9,80,80v119
		c0,11-9,20-20,20c-11,0-20-9-20-20V80c0-22.1-17.9-40-40-40H80c-22.1,0-40,17.9-40,40v352c0,22.1,17.9,40,40,40h46
		C137,472,146,481,146,492z M325.9,140c0-11-9-20-20-20h-206c-11,0-20,9-20,20s9,20,20,20h206C316.9,160,325.9,151,325.9,140z
		 M246,220c0-11-9-20-20-20H99.9c-11,0-20,9-20,20s9,20,20,20H226C237,240,246,231,246,220z M99.9,280c-11,0-20,9-20,20s9,20,20,20
		H183c11,0,20-9,20-20s-9-20-20-20H99.9z M448.8,497.1c-7.7,9.5-19.1,14.9-31.2,14.9H222.3c-12.2,0-23.6-5.4-31.3-14.9
		c-7.7-9.5-10.7-21.9-8.2-33.9c6.5-31.1,23.6-59.4,48.2-79.7c9.3-7.7,19.6-14.1,30.4-19.1C249.4,350.7,242,332.7,242,313
		c0-43,35-78,78-78s78,35,78,78c0,19.7-7.4,37.7-19.5,51.5c10.9,5,21.1,11.4,30.4,19.1c24.1,19.9,41,47.5,47.8,77.9
		c0.2,0.5,0.3,1.1,0.4,1.6C459.7,475.1,456.6,487.5,448.8,497.1z M282,313c0,21,17,38,38,38s38-17,38-38s-17-38-38-38
		S282,292,282,313z M418,471.4C418,471.4,418,471.4,418,471.4c-9.6-46.3-50.8-79.9-98-79.9s-88.4,33.6-98,79.8
		c-0.1,0.4,0.2,0.6,0.2,0.6c0,0,0,0,0.1,0h195.3C417.7,472,417.9,471.8,418,471.4z"/>
</g>
</svg>
