<?xml version="1.0" encoding="utf-8"?>
<!-- Generator: Adobe Illustrator 23.0.1, SVG Export Plug-In . SVG Version: 6.00 Build 0)  -->
<svg version="1.1" id="Layer_1" xmlns="http://www.w3.org/2000/svg" xmlns:xlink="http://www.w3.org/1999/xlink" x="0px" y="0px"
	 viewBox="0 0 100 100" style="enable-background:new 0 0 100 100;" xml:space="preserve">
<style type="text/css">
	.st0{fill:#4D91C6;}
</style>
<path class="st0" d="M95.9,95.4L66.7,63.6c6.6-6.9,10.2-15.9,10.2-25.4c0-9.8-3.8-19.1-10.8-26c-7-7-16.2-10.8-26-10.8
	c-9.8,0-19.1,3.8-26,10.8c-7,7-10.8,16.2-10.8,26s3.8,19.1,10.8,26c7,7,16.2,10.8,26,10.8c8.5,0,16.5-2.8,23-8.1l29.2,31.8
	c0.5,0.5,1.1,0.8,1.8,0.8c0.6,0,1.2-0.2,1.7-0.6C96.8,98,96.8,96.4,95.9,95.4L95.9,95.4z M8.1,38.1c0-17.6,14.3-31.9,31.9-31.9
	C57.7,6.2,72,20.5,72,38.1c0,17.6-14.3,31.9-31.9,31.9C22.5,70.1,8.1,55.8,8.1,38.1"/>
</svg>
