<?xml version="1.0" encoding="utf-8"?>
<!-- Generator: Adobe Illustrator 23.0.1, SVG Export Plug-In . SVG Version: 6.00 Build 0)  -->
<svg version="1.1" id="Layer_1" xmlns="http://www.w3.org/2000/svg" xmlns:xlink="http://www.w3.org/1999/xlink" x="0px" y="0px"
	 viewBox="0 0 200 200" style="enable-background:new 0 0 200 200;" xml:space="preserve">
<style type="text/css">
	.st0{fill:#4D92C7;}
</style>
<title>Asset 67</title>
<g>
	<g id="Layer_1-2">
		<path class="st0" d="M185,73.7c-5.2-3.1-7.7-9.3-6.3-15.2c4.2-16.4-5.7-33-22-37.2c-5-1.3-10.2-1.3-15.2,0
			c-5.9,1.5-12-1.1-15.2-6.3C117.7,0.5,98.9-4.3,84.4,4.3C80,6.9,76.3,10.6,73.7,15c-3.1,5.2-9.3,7.8-15.2,6.3
			c-16.4-4.2-33,5.7-37.2,22.1c-1.3,5-1.3,10.2,0,15.2c1.5,5.9-1,12-6.3,15.2C0.5,82.3-4.3,101.1,4.3,115.6
			c2.6,4.4,6.3,8.1,10.7,10.7c5.2,3.1,7.8,9.3,6.3,15.2c-4.2,16.4,5.7,33,22.1,37.2c5,1.3,10.2,1.3,15.2,0c5.9-1.5,12,1.1,15.2,6.3
			c8.6,14.5,27.4,19.3,41.9,10.7c4.4-2.6,8.1-6.3,10.7-10.7c3.1-5.2,9.3-7.7,15.2-6.3c16.4,4.2,33-5.7,37.2-22.1
			c1.3-5,1.3-10.2,0-15.2c-1.5-5.9,1.1-12,6.3-15.2c14.5-8.6,19.3-27.4,10.7-41.9C193.1,80,189.4,76.3,185,73.7
			C185,73.7,185,73.7,185,73.7z M176.4,111.8c-11.6,7-17.3,20.8-13.9,34c1.9,7.3-2.6,14.7-9.9,16.6c-2.2,0.6-4.6,0.6-6.8,0
			c-13.2-3.3-27,2.4-33.9,14.1c-3.8,6.5-12.2,8.7-18.6,4.9c-2-1.2-3.7-2.8-4.9-4.9c-5.6-9.3-15.6-15-26.4-15c-2.6,0-5.1,0.3-7.6,1
			c-7.3,1.9-14.7-2.6-16.6-9.9c-0.6-2.2-0.6-4.6,0-6.8c3.3-13.2-2.4-27-14.1-33.9c-6.5-3.8-8.7-12.2-4.9-18.6c1.2-2,2.8-3.7,4.9-4.9
			c11.7-7,17.4-20.8,14-34c-1.8-7.3,2.6-14.8,9.9-16.6c2.2-0.6,4.5-0.6,6.8,0c13.2,3.3,26.9-2.4,33.9-14.1
			c3.8-6.5,12.2-8.7,18.6-4.9c2,1.2,3.7,2.8,4.9,4.9c7,11.7,20.8,17.4,34,14c7.3-1.9,14.8,2.6,16.6,9.9c0.6,2.2,0.6,4.5,0,6.8
			c-3.3,13.2,2.4,27,14,33.9c6.5,3.8,8.7,12.2,4.9,18.6c-1.2,2-2.8,3.7-4.9,4.9L176.4,111.8L176.4,111.8z"/>
		<path class="st0" d="M100,57.7c-23.4,0-42.3,18.9-42.3,42.3c0,23.4,18.9,42.3,42.3,42.3c23.4,0,42.3-18.9,42.3-42.3
			C142.2,76.7,123.3,57.8,100,57.7z M100,125.4c-14,0-25.4-11.4-25.4-25.4S86,74.6,100,74.6S125.4,86,125.4,100l0,0
			C125.4,114,114,125.4,100,125.4z"/>
	</g>
</g>
</svg>
