<?xml version="1.0" encoding="utf-8"?>
<!-- Generator: Adobe Illustrator 23.0.1, SVG Export Plug-In . SVG Version: 6.00 Build 0)  -->
<svg version="1.1" id="Layer_1" xmlns="http://www.w3.org/2000/svg" xmlns:xlink="http://www.w3.org/1999/xlink" x="0px" y="0px"
	 viewBox="0 0 200 200" style="enable-background:new 0 0 200 200;" xml:space="preserve">
<style type="text/css">
	.st0{fill:#4D91C6;}
</style>
<g>
	<g>
		<path class="st0" d="M100,124c-30.6,0-55.5-24.9-55.5-55.5S69.4,13,100,13c30.6,0,55.5,24.9,55.5,55.5S130.6,124,100,124z
			 M100,28.8c-21.8,0-39.6,17.8-39.6,39.6s17.8,39.6,39.6,39.6c21.8,0,39.6-17.8,39.6-39.6S121.8,28.8,100,28.8z"/>
	</g>
	<g>
		<path class="st0" d="M179.3,187.4h-15.9c0-35-28.4-63.4-63.4-63.4s-63.4,28.4-63.4,63.4H20.7c0-43.7,35.6-79.3,79.3-79.3
			C143.7,108.1,179.3,143.7,179.3,187.4z"/>
	</g>
</g>
</svg>
