<svg id="Layer_1" data-name="Layer 1" xmlns="http://www.w3.org/2000/svg" viewBox="0 0 374 115"><defs><style>.cls-1{fill:#0f4c81;}.cls-2{fill:#4d91c6;}</style></defs><title>logo-long</title><path class="cls-1" d="M108.25,59.23a18.4,18.4,0,0,1,19-18.63c12.31,0,19,9.61,19,18.7s-6.64,18.75-19,18.75-19-9.6-19-18.75Zm8.45.13a10.48,10.48,0,1,0,21-.06,10.48,10.48,0,1,0-21,0Z"/><polygon class="cls-1" points="149.37 71.16 166 48.15 149.69 48.15 149.69 41.63 175.22 41.63 175.22 48.15 159.43 70.51 175.48 70.51 175.48 77.02 149.37 77.02 149.37 71.16"/><path class="cls-1" d="M187,62.13c.38,5.67,5.41,8.83,10.25,8.77a9.11,9.11,0,0,0,8.5-4.77h8.71A19.93,19.93,0,0,1,207.25,75a17.46,17.46,0,0,1-10.12,3.1A18.79,18.79,0,0,1,197,40.54,18.1,18.1,0,0,1,210.22,46c4.32,4.45,5.93,10,5.22,16.18Zm20.17-6.44c-.32-3.36-3.86-8.06-10.05-8s-9.67,4.52-10,8Z"/><path class="cls-1" d="M221.81,41.63h8v4.65c1.54-3.16,4.44-5.68,9.79-5.74v8.51h-.38c-5.93,0-9,2.77-9,8.89V77h-8.45Z"/><path class="cls-2" d="M240.83,59.23A18.4,18.4,0,0,1,259.78,40.6c12.31,0,19,9.61,19,18.7s-6.64,18.75-19,18.75-18.95-9.6-18.95-18.75Zm8.44.13a10.48,10.48,0,1,0,21-.06,10.48,10.48,0,1,0-21,0Z"/><path class="cls-1" d="M285.23,41.63h7.93c0,1.55,0,3-.06,4.71,1.54-2.77,4.7-5.87,11-5.8,11.54.06,13.73,8.89,13.73,15.15V77h-8.44V57.81c0-5.28-1.74-9.34-7.67-9.34s-8.06,4.06-8.06,9V77h-8.45Z"/><path class="cls-1" d="M332.35,62.13c.38,5.67,5.41,8.83,10.25,8.77a9.13,9.13,0,0,0,8.51-4.77h8.7A19.93,19.93,0,0,1,352.65,75a17.46,17.46,0,0,1-10.12,3.1,18.79,18.79,0,0,1-.13-37.58A18.1,18.1,0,0,1,355.62,46c4.32,4.45,5.93,10,5.22,16.18Zm20.17-6.44c-.32-3.36-3.86-8.06-10-8s-9.67,4.52-10,8Z"/><path class="cls-2" d="M61.21,52.48H51.64V24.14L41.59,33l-6.34-7.18,5.67-5A12.21,12.21,0,0,1,61.21,30Z"/><path class="cls-1" d="M60.65,67.14l-4.78-8.29L80.41,44.69,67.7,40.42l3-9.08,7.16,2.41A12.21,12.21,0,0,1,80.13,55.9Z"/><path class="cls-2" d="M47.68,74l4.78-8.29L77,79.87,74.34,66.73l9.39-1.9,1.5,7.41a12.22,12.22,0,0,1-18.08,13Z"/><path class="cls-1" d="M35.25,66.18h9.58V94.51l10.05-8.87,6.33,7.18-5.66,5a12.22,12.22,0,0,1-20.3-9.15Z"/><path class="cls-2" d="M35.81,51.51,40.6,59.8,16.06,74l12.71,4.27-3.05,9.07-7.16-2.4a12.21,12.21,0,0,1-2.22-22.15Z"/><path class="cls-1" d="M48.79,44.66,44,53,19.46,38.79l2.66,13.13-9.38,1.9-1.5-7.4a12.21,12.21,0,0,1,18.08-13Z"/></svg>