<?xml version="1.0"?>
<svg xmlns="http://www.w3.org/2000/svg" xmlns:xlink="http://www.w3.org/1999/xlink" xmlns:svgjs="http://svgjs.com/svgjs" version="1.1" width="512" height="512" x="0" y="0" viewBox="0 0 512 512" style="enable-background:new 0 0 512 512" xml:space="preserve"><g>
<g xmlns="http://www.w3.org/2000/svg">
	<g>
		<path d="M377.047,416.645c0.672-0.492,1.293-1.062,1.851-1.701c2.156-2.476,3.136-5.76,2.687-9.012    c-2.12-15.334-6.927-26.407-19.676-36.136c-36.911-28.161-122.929-20.92-122.929,63.576c0,10.904,1.388,21.029,4.061,30.173    c-1.765-2.28-4.521-3.757-7.622-3.757h-49.582v-91.504c0-5.317-4.326-9.642-9.642-9.642h-34.367c-5.999,0-10.88,4.881-10.88,10.88    v129.411c0,5.318,4.326,9.642,9.642,9.642h94.828c5.318,0,9.643-4.326,9.643-9.642V469.62c2.845,7.573,6.653,14.361,11.408,20.19    c21.283,26.094,57.909,26.982,78.265,13.974c1.764,2.871,4.935,4.79,8.544,4.79h28.893c5.514,0,10-4.486,10-10v-72.562    C382.174,422.084,380.129,418.626,377.047,416.645z M230.036,493.547h-84.06v-119.88h24.836v91.505    c0,5.318,4.326,9.642,9.642,9.642h49.582V493.547z M367.147,493.546h-18.861v-5.926c0-7.412-9.692-10.348-13.788-4.134    c-15.58,23.645-80.491,22.035-80.491-50.115c0.001-70.349,70.719-72.982,98.732-51.67c7.776,6.178,11.328,11.904,13.278,22.105    h-27.108c-9.435-26.005-58.161-27.324-58.161,30.111c0,35.186,17.444,47.722,33.77,47.722c15.346,0,25.373-8.251,29.801-24.524    c1.894-6.974-3.367-13.834-10.589-13.834h-13.872v-13.37h47.289V493.546z M318.043,458.309h9.952    c-3.137,6.757-7.727,8.304-13.475,8.304c-16.917,0-18.743-22.865-18.743-32.695c0-9.667,1.757-32.153,18.031-32.153    c5.554,0,9.615,2.792,11.143,7.66c0.663,2.115,1.798,3.97,3.265,5.461h-11.4c-6.609,0-11.985,5.377-11.985,11.985v18.226    C304.831,452.382,310.757,458.309,318.043,458.309z" fill="#ffffff" data-original="#000000" style=""/>
	</g>
</g>
<g xmlns="http://www.w3.org/2000/svg">
	<g>
		<path d="M291.133,218.938H264.28V97.405c0.002-2.245-1.825-4.072-4.07-4.072h-7.2c-2.37,0-4.299,1.928-4.299,4.299V229.4    c0,2.683,2.183,4.866,4.866,4.866h37.51c2.474,0,4.487-2.013,4.487-4.487v-6.4C295.574,220.931,293.582,218.938,291.133,218.938z" fill="#ffffff" data-original="#000000" style=""/>
	</g>
</g>
<g xmlns="http://www.w3.org/2000/svg">
	<g>
		<path d="M383.007,156.379h-85.742c-2.542,0-4.609,2.068-4.609,4.609v6.253c0,2.388,1.943,4.331,4.331,4.331h77.132l-0.038,0.536    c-6.972,99.724-129.041,146.916-200.998,75.06c-46.041-45.938-46.036-120.731-0.001-166.684    c22.366-22.263,51.969-34.524,83.355-34.524c4.001,0,5.197,0.299,6.662-1.155c0.764-0.759,1.185-1.772,1.185-2.849v-7.198    c0-2.237-1.818-4.081-4.054-4.111c-1.406-0.019-2.903-0.025-3.846-0.025c-73.379-0.001-133.076,59.762-133.076,133.22    c0,35.555,13.854,69.014,39.008,94.211c52.133,52.266,136.627,51.832,188.367,0c25.147-25.202,38.996-58.66,38.996-94.212    C389.679,158.779,386.402,156.379,383.007,156.379z" fill="#ffffff" data-original="#000000" style=""/>
	</g>
</g>
<g xmlns="http://www.w3.org/2000/svg">
	<g>
		<path d="M206.234,87.249c-14.535,0-26.36,11.847-26.36,26.412c0,14.512,11.824,26.319,26.36,26.319    c14.563,0,26.412-11.806,26.412-26.319C232.645,99.098,220.797,87.249,206.234,87.249z M206.233,124.952    c-6.248,0-11.332-5.065-11.332-11.291c0-6.277,5.083-11.385,11.332-11.385c6.277,0,11.385,5.106,11.385,11.385    C217.617,119.886,212.51,124.952,206.233,124.952z" fill="#ffffff" data-original="#000000" style=""/>
	</g>
</g>
<g xmlns="http://www.w3.org/2000/svg">
	<g>
		<path d="M420.284,145.525C411.827,69.18,351.151,8.562,274.852,0.066c-4.129-0.457-7.84,2.513-8.299,6.636    c-0.459,4.124,2.513,7.84,6.636,8.3c68.943,7.676,124.525,63.265,132.161,132.179c0.455,4.11,4.151,7.096,8.295,6.641    C417.769,153.364,420.741,149.65,420.284,145.525z" fill="#ffffff" data-original="#000000" style=""/>
	</g>
</g>
<g xmlns="http://www.w3.org/2000/svg">
	<g>
		<path d="M413.644,173.948c-4.142-0.45-7.838,2.518-8.295,6.64c-8.41,75.891-72.451,133.12-148.966,133.12    c-82.537,0-149.686-67.21-149.686-149.824c0-76.508,57.214-140.523,133.085-148.902c4.124-0.456,7.099-4.169,6.644-8.293    s-4.164-7.096-8.293-6.643C155.439,9.179,91.67,79.336,91.67,163.885c0,90.899,73.889,164.851,164.714,164.851    c84.185,0,154.647-62.978,163.901-146.492C420.741,178.119,417.769,174.406,413.644,173.948z" fill="#ffffff" data-original="#000000" style=""/>
	</g>
</g>
<g xmlns="http://www.w3.org/2000/svg">
</g>
<g xmlns="http://www.w3.org/2000/svg">
</g>
<g xmlns="http://www.w3.org/2000/svg">
</g>
<g xmlns="http://www.w3.org/2000/svg">
</g>
<g xmlns="http://www.w3.org/2000/svg">
</g>
<g xmlns="http://www.w3.org/2000/svg">
</g>
<g xmlns="http://www.w3.org/2000/svg">
</g>
<g xmlns="http://www.w3.org/2000/svg">
</g>
<g xmlns="http://www.w3.org/2000/svg">
</g>
<g xmlns="http://www.w3.org/2000/svg">
</g>
<g xmlns="http://www.w3.org/2000/svg">
</g>
<g xmlns="http://www.w3.org/2000/svg">
</g>
<g xmlns="http://www.w3.org/2000/svg">
</g>
<g xmlns="http://www.w3.org/2000/svg">
</g>
<g xmlns="http://www.w3.org/2000/svg">
</g>
</g></svg>
