<svg id="Layer_1" data-name="Layer 1" xmlns="http://www.w3.org/2000/svg" viewBox="0 0 25.89 28.32"><defs><style>.cls-1{fill:#4d91c6;}.cls-2{fill:#0f4c81;}</style></defs><title>logo</title><path class="cls-1" d="M19,12.83H15.71V3.18l-3.42,3L10.13,3.75l1.93-1.7A4.16,4.16,0,0,1,19,5.17Z" transform="translate(-1.6 -1)"/><path class="cls-2" d="M18.78,17.82,17.15,15l8.36-4.83L21.18,8.72l1-3.09,2.44.82A4.16,4.16,0,0,1,25.41,14Z" transform="translate(-1.6 -1)"/><path class="cls-1" d="M14.36,20.15,16,17.33l8.36,4.82-.91-4.47,3.2-.65.51,2.53A4.16,4.16,0,0,1,21,24Z" transform="translate(-1.6 -1)"/><path class="cls-2" d="M10.13,17.49h3.26v9.65l3.42-3L19,26.56,17,28.27a4.16,4.16,0,0,1-6.91-3.12Z" transform="translate(-1.6 -1)"/><path class="cls-1" d="M10.32,12.5,12,15.32,3.59,20.15,7.92,21.6l-1,3.09-2.44-.82a4.16,4.16,0,0,1-.76-7.54Z" transform="translate(-1.6 -1)"/><path class="cls-2" d="M14.74,10.16,13.11,13,4.75,8.16l.91,4.48-3.2.64L2,10.76A4.16,4.16,0,0,1,8.11,6.33Z" transform="translate(-1.6 -1)"/></svg>